<svg width="194" height="94" viewBox="0 0 194 94" fill="none" xmlns="http://www.w3.org/2000/svg">
<path d="M11.1743 2.5C35.896 15.4418 69.726 23.396 107.028 23.3478C137.394 23.3085 165.446 17.9719 188.147 8.97213" stroke="#784F36" stroke-opacity="0.2" stroke-width="5" stroke-linecap="round"/>
<path d="M188.123 9.24437C171.395 19.3257 151.606 27.9016 129.789 33.9819C111.375 39.1137 93.4641 42.1428 76.8009 43.1737" stroke="#784F36" stroke-opacity="0.2" stroke-width="5" stroke-linecap="round"/>
<path d="M13.062 44.3919C30.3614 64.8063 56.1501 77.6288 90.8688 77.5324C136.229 77.4066 174.411 54.1585 186.119 22.5334" stroke="#784F36" stroke-opacity="0.2" stroke-width="5" stroke-linecap="round"/>
<path d="M142.611 57.0566C122.593 74.3279 103.599 78.3525 65.3088 71.9796C29.2739 60.0726 14.5405 33.4676 12.1168 13.9375" stroke="#784F36" stroke-opacity="0.2" stroke-width="5" stroke-linecap="round"/>
<path d="M11.668 12.8516C17.9204 21.8616 30.3748 29.7179 45.7563 33.2539C49.6421 34.1472 53.4803 34.7108 57.201 34.9677" stroke="#784F36" stroke-opacity="0.2" stroke-width="5" stroke-linecap="round"/>
<path d="M144.252 40.5742C155.118 42.059 169.327 38.1941 182.332 29.2514C185.617 26.9922 188.628 24.5453 191.333 21.9775" stroke="#784F36" stroke-opacity="0.2" stroke-width="5" stroke-linecap="round"/>
</svg>
