<svg width="107" height="103" viewBox="0 0 107 103" fill="none" xmlns="http://www.w3.org/2000/svg" xmlns:xlink="http://www.w3.org/1999/xlink">
<path opacity="0.6" d="M0 12H107L88.8394 103H17.6697L0 12Z" fill="url(#paint0_linear_1976_3248)"/>
<rect opacity="0.8" x="11" y="16.1064" width="21.8809" height="21.8809" transform="rotate(-24.5946 11 16.1064)" fill="url(#pattern0_1976_3248)"/>
<g opacity="0.5">
<rect width="20.7417" height="20.2645" rx="10.1323" transform="matrix(0.947922 0.318503 -0.600038 0.799972 66.1602 58)" fill="white"/>
<path d="M64.9649 74.3837L65.3015 68.6375L65.8739 67.8744L66.437 68.0636C66.983 68.247 67.4854 68.3557 67.9441 68.3897C68.4029 68.4236 68.8252 68.3732 69.2111 68.2385C69.6042 68.0941 69.9588 67.8587 70.2749 67.5322L66.9648 66.42L67.6884 65.4552L70.9815 66.5617C71.1467 66.2086 71.2004 65.8901 71.1427 65.6063C71.0922 65.3129 70.9245 65.0522 70.6397 64.8243C70.3549 64.5964 69.9566 64.3965 69.4447 64.2245L68.7793 64.0009L69.5029 63.0361L76.7545 65.4727L76.0309 66.4374L72.9596 65.4055C73.0617 65.6682 73.1023 65.9462 73.0816 66.2397C73.0608 66.5332 72.958 66.8412 72.7731 67.1637L74.94 67.8918L74.2164 68.8566L72.0835 68.1399C71.4783 68.8139 70.7494 69.2541 69.8968 69.4604C69.0555 69.6705 68.1481 69.6842 67.1744 69.5012L67.0977 75.1003L64.9649 74.3837Z" fill="#2945DE"/>
</g>
<path d="M41.8106 39.2069L26.5354 57.9058C25.7674 58.846 26.0074 60.2482 27.0444 60.8794L30.7164 63.1146C31.5548 63.6249 32.6396 63.4514 33.2771 62.7052L43.7176 50.4821C44.3482 49.7439 45.418 49.5652 46.2543 50.0584L55.3644 55.431C56.2087 55.9289 57.2894 55.7416 57.9168 54.9887L71.1114 39.1552C71.7562 38.3814 72.8758 38.2079 73.7246 38.7502L79.8467 42.6615C81.2568 43.5624 83.0838 42.4366 82.9131 40.772L80.9718 21.8452C80.9076 21.2183 80.5516 20.6585 80.0113 20.3343L78.5931 19.4834C78.0828 19.1772 77.4626 19.1142 76.9011 19.3114L58.7943 25.6733C57.2319 26.2222 56.9754 28.3237 58.36 29.2323L63.0052 32.2807C63.9906 32.9274 64.2059 34.2818 63.4696 35.2022L56.1248 44.3832C55.4767 45.1933 54.3168 45.3734 53.4536 44.798L44.4688 38.8081C43.6122 38.237 42.4619 38.4096 41.8106 39.2069Z" fill="#015124"/>
<path d="M38.7285 37.3573L23.4534 56.0561C22.6853 56.9964 22.9253 58.3986 23.9624 59.0298L27.6344 61.265C28.4728 61.7753 29.5576 61.6018 30.1951 60.8555L40.6355 48.6325C41.2662 47.8943 42.3359 47.7156 43.1723 48.2088L52.2824 53.5814C53.1266 54.0793 54.2073 53.892 54.8348 53.139L68.0294 37.3056C68.6742 36.5318 69.7938 36.3583 70.6426 36.9005L76.7647 40.8119C78.1748 41.7128 80.0018 40.587 79.831 38.9224L78.0205 21.2698C77.8972 20.0674 76.7436 19.2483 75.5677 19.5283L56.4076 24.0902C54.7014 24.4964 54.3072 26.7456 55.7736 27.7079L59.9232 30.4311C60.9086 31.0778 61.1239 32.4321 60.3876 33.3526L53.0427 42.5336C52.3947 43.3437 51.2348 43.5238 50.3716 42.9483L41.3868 36.9585C40.5301 36.3874 39.3799 36.56 38.7285 37.3573Z" fill="#55EEB1"/>
<defs>
<pattern id="pattern0_1976_3248" patternContentUnits="objectBoundingBox" width="1" height="1">
<use xlink:href="#image0_1976_3248" transform="scale(0.00195312)"/>
</pattern>
<linearGradient id="paint0_linear_1976_3248" x1="53.5" y1="12" x2="53.5" y2="103" gradientUnits="userSpaceOnUse">
<stop stop-color="#FCC358" stop-opacity="0"/>
<stop offset="1" stop-color="#FCC358"/>
</linearGradient>
</defs>
</svg>
