<svg width="206" height="120" viewBox="0 0 206 120" fill="none" xmlns="http://www.w3.org/2000/svg">
<path d="M11.1925 14.3443C35.9142 27.2861 69.7442 35.2403 107.046 35.192C137.412 35.1528 165.464 29.8161 188.165 20.8164" stroke="#784F36" stroke-width="5" stroke-linecap="round"/>
<path d="M188.141 21.0886C171.414 31.17 151.625 39.7458 129.807 45.8261C111.394 50.9579 93.4823 53.9871 76.8192 55.018" stroke="#784F36" stroke-width="5" stroke-linecap="round"/>
<path d="M13.0802 56.2362C30.3796 76.6506 56.1683 89.473 90.887 89.3767C136.247 89.2509 174.429 66.0028 186.137 34.3776" stroke="#784F36" stroke-width="5" stroke-linecap="round"/>
<path d="M142.629 68.9008C122.612 86.1722 103.617 90.1967 65.3271 83.8238C29.2922 71.9168 14.5588 45.3118 12.1351 25.7818" stroke="#784F36" stroke-width="5" stroke-linecap="round"/>
<path d="M11.6862 24.6958C17.9386 33.7059 30.393 41.5622 45.7745 45.0981C49.6603 45.9914 53.4985 46.5551 57.2193 46.812" stroke="#784F36" stroke-width="5" stroke-linecap="round"/>
<path d="M144.271 52.4185C155.137 53.9033 169.346 50.0383 182.35 41.0957C185.636 38.8365 188.646 36.3895 191.351 33.8217" stroke="#784F36" stroke-width="5" stroke-linecap="round"/>
</svg>
