<svg width="146" height="120" viewBox="0 0 146 120" fill="none" xmlns="http://www.w3.org/2000/svg">
<path d="M73.0002 116.572C100.511 116.572 122.812 113.502 122.812 109.715C122.812 105.927 100.511 102.857 73.0002 102.857C45.49 102.857 23.1885 105.927 23.1885 109.715C23.1885 113.502 45.49 116.572 73.0002 116.572Z" fill="#3B5BDB" fill-opacity="0.1"/>
<path d="M103.059 24H27.4823C22.7392 24 18.8941 27.8376 18.8941 32.5714V77.1429C18.8941 81.8767 22.7392 85.7143 27.4823 85.7143H103.059C107.802 85.7143 111.647 81.8767 111.647 77.1429V32.5714C111.647 27.8376 107.802 24 103.059 24Z" fill="#7048E8" fill-opacity="0.12" stroke="#7048E8" stroke-opacity="0.2" stroke-width="1.5"/>
<path d="M109.929 17.1426H34.3529C29.6097 17.1426 25.7646 20.9801 25.7646 25.714V70.2854C25.7646 75.0193 29.6097 78.8569 34.3529 78.8569H109.929C114.673 78.8569 118.518 75.0193 118.518 70.2854V25.714C118.518 20.9801 114.673 17.1426 109.929 17.1426Z" fill="#F4F4F4" stroke="#7048E8" stroke-opacity="0.15" stroke-width="1.5"/>
<path d="M109.929 17.1426H34.3529C29.6097 17.1426 25.7646 20.9801 25.7646 25.714V27.4283C25.7646 32.1622 29.6097 35.9997 34.3529 35.9997H109.929C114.673 35.9997 118.518 32.1622 118.518 27.4283V25.714C118.518 20.9801 114.673 17.1426 109.929 17.1426Z" fill="#3B5BDB" fill-opacity="0.08"/>
<path d="M118.518 25.7148H25.7646V36.0006H118.518V25.7148Z" fill="#3B5BDB" fill-opacity="0.08"/>
<path opacity="0.7" d="M47.2354 22.2852H36.9295C35.5066 22.2852 34.353 23.4364 34.353 24.8566V28.2852C34.353 29.7053 35.5066 30.8566 36.9295 30.8566H47.2354C48.6583 30.8566 49.8119 29.7053 49.8119 28.2852V24.8566C49.8119 23.4364 48.6583 22.2852 47.2354 22.2852Z" fill="black"/>
<path d="M37.441 25.5167V27.4857C37.441 27.5517 37.4474 27.5994 37.4603 27.6287C37.4749 27.6562 37.4978 27.6764 37.529 27.6892L37.606 27.7195C37.6647 27.7488 37.694 27.7928 37.694 27.8515C37.694 27.9505 37.6326 28 37.5098 28H36.3713C36.3071 28 36.2603 27.9881 36.231 27.9642C36.2035 27.9386 36.1898 27.9037 36.1898 27.8597C36.1898 27.8267 36.198 27.7983 36.2145 27.7745C36.2328 27.7507 36.2613 27.7314 36.2998 27.7167L36.385 27.6892C36.4143 27.6764 36.4354 27.6562 36.4483 27.6287C36.4629 27.5994 36.4703 27.5527 36.4703 27.4885V26.0585C36.4703 26.0053 36.4629 25.9677 36.4483 25.9457C36.4336 25.9219 36.4098 25.9063 36.3768 25.899L36.275 25.8852C36.2383 25.8742 36.2118 25.8587 36.1953 25.8385C36.1806 25.8183 36.1733 25.7927 36.1733 25.7615C36.1733 25.723 36.1833 25.6927 36.2035 25.6707C36.2255 25.6487 36.2649 25.6267 36.3218 25.6047L36.88 25.393C36.9625 25.3618 37.0285 25.3389 37.078 25.3242C37.1293 25.3096 37.1788 25.3022 37.2265 25.3022C37.2962 25.3022 37.3493 25.3224 37.386 25.3627C37.4227 25.4031 37.441 25.4544 37.441 25.5167ZM37.3503 26.1602L37.2018 26.0062L37.298 25.9182C37.5437 25.6872 37.7573 25.5259 37.9388 25.4342C38.1221 25.3426 38.2917 25.2967 38.4475 25.2967C38.6895 25.2967 38.8838 25.3756 39.0305 25.5332C39.179 25.6891 39.2533 25.8962 39.2533 26.1547V27.483C39.2533 27.5508 39.2606 27.5994 39.2753 27.6287C39.2899 27.6562 39.3128 27.6764 39.344 27.6892L39.421 27.7167C39.4595 27.7314 39.487 27.7507 39.5035 27.7745C39.5218 27.7983 39.531 27.8267 39.531 27.8597C39.531 27.9037 39.5163 27.9386 39.487 27.9642C39.4595 27.9881 39.4146 28 39.3523 28H38.211C38.0882 28 38.0268 27.9505 38.0268 27.8515C38.0268 27.7928 38.0561 27.7488 38.1148 27.7195L38.1945 27.6892C38.2257 27.6764 38.2477 27.6553 38.2605 27.626C38.2752 27.5967 38.2825 27.549 38.2825 27.483V26.295C38.2825 26.1557 38.2486 26.0512 38.1808 25.9815C38.1148 25.9118 38.0249 25.877 37.9113 25.877C37.8398 25.877 37.7637 25.8926 37.683 25.9237C37.6042 25.9549 37.5272 26.0035 37.452 26.0695L37.3503 26.1602ZM42.5067 26.3472C42.5067 26.4627 42.4746 26.5517 42.4105 26.614C42.3481 26.6745 42.2574 26.7047 42.1382 26.7047H40.4635V26.4545H41.3957C41.4929 26.4545 41.5415 26.4096 41.5415 26.3197C41.5415 26.0851 41.5057 25.9118 41.4342 25.8C41.3645 25.6882 41.2701 25.6322 41.151 25.6322C41.063 25.6322 40.9841 25.6616 40.9145 25.7202C40.8448 25.7771 40.7898 25.8632 40.7495 25.9787C40.7091 26.0924 40.689 26.2317 40.689 26.3967C40.689 26.7414 40.7678 26.9972 40.9255 27.164C41.085 27.329 41.2985 27.4115 41.5662 27.4115C41.7074 27.4115 41.833 27.3886 41.943 27.3427C42.0548 27.2969 42.151 27.2236 42.2317 27.1227C42.2757 27.0806 42.3096 27.0522 42.3335 27.0375C42.3573 27.0228 42.3811 27.0155 42.405 27.0155C42.438 27.0155 42.4618 27.032 42.4765 27.065C42.4911 27.0962 42.4985 27.1337 42.4985 27.1777C42.4948 27.3372 42.4398 27.4857 42.3335 27.6232C42.2271 27.7589 42.0805 27.868 41.8935 27.9505C41.7083 28.0312 41.4929 28.0715 41.2472 28.0715C40.974 28.0715 40.7302 28.0165 40.5157 27.9065C40.3012 27.7965 40.1316 27.6425 40.007 27.4445C39.8841 27.2465 39.8227 27.0155 39.8227 26.7515C39.8227 26.4618 39.8805 26.2079 39.996 25.9897C40.1115 25.7716 40.2783 25.602 40.4965 25.481C40.7146 25.3582 40.9768 25.2967 41.283 25.2967C41.547 25.2967 41.7697 25.3417 41.9512 25.4315C42.1345 25.5213 42.273 25.646 42.3665 25.8055C42.46 25.9632 42.5067 26.1437 42.5067 26.3472ZM44.0541 25.5992C43.9368 25.5992 43.847 25.6267 43.7846 25.6817C43.7241 25.7349 43.6939 25.8018 43.6939 25.8825C43.6939 25.932 43.704 25.9778 43.7241 26.02C43.7443 26.0603 43.7865 26.0979 43.8506 26.1327C43.9148 26.1657 44.012 26.1951 44.1421 26.2207C44.4556 26.2794 44.6949 26.3546 44.8599 26.4463C45.0267 26.5361 45.1413 26.6424 45.2036 26.7652C45.2678 26.8862 45.2999 27.0228 45.2999 27.175C45.2999 27.4518 45.2027 27.6709 45.0084 27.8322C44.8141 27.9917 44.529 28.0715 44.1531 28.0715C44.023 28.0715 43.9176 28.0605 43.8369 28.0385C43.7562 28.0183 43.6902 27.9982 43.6389 27.978C43.5894 27.956 43.5454 27.945 43.5069 27.945C43.4647 27.945 43.4299 27.956 43.4024 27.978C43.3767 27.9982 43.3511 28.0193 43.3254 28.0413C43.2997 28.0633 43.2667 28.0743 43.2264 28.0743C43.1861 28.0743 43.1558 28.0623 43.1356 28.0385C43.1155 28.0165 43.0971 27.9762 43.0806 27.9175L42.9156 27.4005C42.8918 27.318 42.8845 27.2529 42.8936 27.2052C42.9046 27.1557 42.9349 27.1218 42.9844 27.1035C43.0357 27.0852 43.0806 27.0852 43.1191 27.1035C43.1576 27.12 43.1934 27.1548 43.2264 27.208C43.3089 27.34 43.396 27.4472 43.4876 27.5297C43.5811 27.6122 43.6783 27.6737 43.7791 27.714C43.8818 27.7525 43.9863 27.7717 44.0926 27.7717C44.2338 27.7717 44.3392 27.7442 44.4089 27.6892C44.4786 27.6342 44.5134 27.5609 44.5134 27.4692C44.5134 27.4124 44.4987 27.3629 44.4694 27.3207C44.4419 27.2767 44.386 27.2373 44.3016 27.2025C44.2191 27.1658 44.0963 27.131 43.9331 27.098C43.682 27.0485 43.4821 26.9816 43.3336 26.8972C43.1851 26.8111 43.0779 26.7066 43.0119 26.5837C42.9477 26.4609 42.9156 26.317 42.9156 26.152C42.9156 25.9797 42.9615 25.8293 43.0531 25.701C43.1448 25.5727 43.2704 25.4737 43.4299 25.404C43.5894 25.3325 43.7736 25.2967 43.9826 25.2967C44.1165 25.2967 44.2228 25.3077 44.3016 25.3297C44.3823 25.3517 44.4474 25.3747 44.4969 25.3985C44.5482 25.4205 44.5977 25.4315 44.6454 25.4315C44.6912 25.4315 44.7288 25.4205 44.7581 25.3985C44.7893 25.3747 44.8186 25.3517 44.8461 25.3297C44.8736 25.3077 44.9076 25.2967 44.9479 25.2967C44.9827 25.2967 45.0111 25.3096 45.0331 25.3352C45.057 25.3591 45.0744 25.4003 45.0854 25.459L45.1954 25.9567C45.2101 26.0374 45.2119 26.0997 45.2009 26.1437C45.1917 26.1859 45.1633 26.2162 45.1156 26.2345C45.0661 26.2547 45.0221 26.2537 44.9836 26.2317C44.947 26.2097 44.9085 26.1694 44.8681 26.1107C44.749 25.9219 44.6179 25.7899 44.4749 25.7147C44.3337 25.6377 44.1935 25.5992 44.0541 25.5992ZM45.7906 25.6845L45.6861 25.6487C45.6421 25.6341 45.61 25.6157 45.5899 25.5937C45.5715 25.5699 45.5624 25.5415 45.5624 25.5085C45.5624 25.4645 45.5779 25.4306 45.6091 25.4067C45.6403 25.3829 45.6806 25.371 45.7301 25.371H45.8896C45.9281 25.371 45.962 25.3627 45.9914 25.3462C46.0225 25.3279 46.0583 25.2958 46.0986 25.25L46.4699 24.8127C46.5194 24.7577 46.5661 24.7174 46.6101 24.6917C46.6541 24.6661 46.6972 24.6532 46.7394 24.6532C46.7852 24.6532 46.8209 24.6688 46.8466 24.7C46.8723 24.7293 46.8851 24.7715 46.8851 24.8265V27.1062C46.8851 27.2364 46.9089 27.3363 46.9566 27.406C47.0061 27.4738 47.0749 27.5077 47.1629 27.5077C47.2307 27.5077 47.2829 27.4922 47.3196 27.461C47.3581 27.4298 47.3884 27.395 47.4104 27.3565C47.4342 27.3162 47.4571 27.2804 47.4791 27.2492C47.5029 27.2181 47.535 27.2025 47.5754 27.2025C47.6065 27.2025 47.6313 27.2135 47.6496 27.2355C47.6698 27.2575 47.6799 27.2951 47.6799 27.3482C47.6799 27.4784 47.6404 27.5985 47.5616 27.7085C47.4828 27.8167 47.3737 27.9037 47.2344 27.9697C47.0969 28.0339 46.9392 28.066 46.7614 28.066C46.4937 28.066 46.2856 28.0009 46.1371 27.8707C45.9886 27.7387 45.9144 27.5407 45.9144 27.2767V25.8577C45.9144 25.8064 45.9043 25.7688 45.8841 25.745C45.8658 25.7212 45.8346 25.701 45.7906 25.6845ZM46.5304 25.7037V25.371H47.4901C47.5396 25.371 47.579 25.382 47.6084 25.404C47.6377 25.4242 47.6524 25.4544 47.6524 25.4947C47.6524 25.5534 47.623 25.6029 47.5644 25.6432C47.5075 25.6836 47.4131 25.7037 47.2811 25.7037H46.5304Z" fill="#F4F4F4"/>
<path d="M44.6589 59.9992C50.3507 59.9992 54.9648 55.3941 54.9648 49.7134C54.9648 44.0328 50.3507 39.4277 44.6589 39.4277C38.9671 39.4277 34.353 44.0328 34.353 49.7134C34.353 55.3941 38.9671 59.9992 44.6589 59.9992Z" fill="#7048E8" fill-opacity="0.12" stroke="#7048E8" stroke-opacity="0.2"/>
<path d="M44.6588 50.5714C47.0304 50.5714 48.9529 48.6526 48.9529 46.2857C48.9529 43.9188 47.0304 42 44.6588 42C42.2872 42 40.3647 43.9188 40.3647 46.2857C40.3647 48.6526 42.2872 50.5714 44.6588 50.5714Z" fill="#7048E8" fill-opacity="0.3"/>
<path d="M36.0708 59.9994C36.0708 54.8566 39.5061 52.2852 44.659 52.2852C49.812 52.2852 53.2473 54.8566 53.2473 59.9994" fill="#7048E8" fill-opacity="0.2"/>
<path d="M104.347 42.8574H62.2647C61.0789 42.8574 60.1177 43.8168 60.1177 45.0003C60.1177 46.1837 61.0789 47.1431 62.2647 47.1431H104.347C105.533 47.1431 106.494 46.1837 106.494 45.0003C106.494 43.8168 105.533 42.8574 104.347 42.8574Z" fill="#1A1060" fill-opacity="0.2"/>
<path d="M91.0353 51.4277H61.8353C60.8867 51.4277 60.1177 52.1952 60.1177 53.142C60.1177 54.0888 60.8867 54.8563 61.8353 54.8563H91.0353C91.984 54.8563 92.753 54.0888 92.753 53.142C92.753 52.1952 91.984 51.4277 91.0353 51.4277Z" fill="#1A1060" fill-opacity="0.1"/>
<path d="M97.9059 59.1426H61.8353C60.8867 59.1426 60.1177 59.9101 60.1177 60.8569C60.1177 61.8036 60.8867 62.5711 61.8353 62.5711H97.9059C98.8545 62.5711 99.6236 61.8036 99.6236 60.8569C99.6236 59.9101 98.8545 59.1426 97.9059 59.1426Z" fill="#1A1060" fill-opacity="0.1"/>
<path d="M108.212 68.5723H36.0707C35.122 68.5723 34.353 69.3398 34.353 70.2866C34.353 71.2333 35.122 72.0008 36.0707 72.0008H108.212C109.16 72.0008 109.929 71.2333 109.929 70.2866C109.929 69.3398 109.16 68.5723 108.212 68.5723Z" fill="#1A1060" fill-opacity="0.06"/>
<path d="M84.5942 74.5723H35.6413C34.9298 74.5723 34.353 75.1479 34.353 75.858C34.353 76.5681 34.9298 77.1437 35.6413 77.1437H84.5942C85.3057 77.1437 85.8824 76.5681 85.8824 75.858C85.8824 75.1479 85.3057 74.5723 84.5942 74.5723Z" fill="#1A1060" fill-opacity="0.06"/>
<path d="M108.212 41.1434C115.801 41.1434 121.953 35.0033 121.953 27.4291C121.953 19.8549 115.801 13.7148 108.212 13.7148C100.623 13.7148 94.4707 19.8549 94.4707 27.4291C94.4707 35.0033 100.623 41.1434 108.212 41.1434Z" fill="#F4F4F4" stroke="#51CF66" stroke-opacity="0.3" stroke-width="2"/>
<path d="M108.212 37.714C113.903 37.714 118.518 33.1089 118.518 27.4283C118.518 21.7476 113.903 17.1426 108.212 17.1426C102.52 17.1426 97.9058 21.7476 97.9058 27.4283C97.9058 33.1089 102.52 37.714 108.212 37.714Z" fill="#51CF66" fill-opacity="0.15"/>
<path d="M103.059 27.4283L106.494 30.8569L113.364 23.1426" stroke="#2F9E44" stroke-width="2" stroke-linecap="round" stroke-linejoin="round"/>
<path d="M133.117 49.7146L134.406 45.8574L135.694 49.7146L139.129 51.0003L135.694 52.286L134.406 56.1431L133.117 52.286L129.682 51.0003L133.117 49.7146Z" fill="#F59F00" fill-opacity="0.6"/>
<path d="M15.4588 40.2854C16.8817 40.2854 18.0353 39.1342 18.0353 37.714C18.0353 36.2938 16.8817 35.1426 15.4588 35.1426C14.0358 35.1426 12.8823 36.2938 12.8823 37.714C12.8823 39.1342 14.0358 40.2854 15.4588 40.2854Z" fill="#9775FA" fill-opacity="0.4"/>
<path d="M132.259 81.0006C133.445 81.0006 134.406 80.0412 134.406 78.8577C134.406 77.6742 133.445 76.7148 132.259 76.7148C131.073 76.7148 130.112 77.6742 130.112 78.8577C130.112 80.0412 131.073 81.0006 132.259 81.0006Z" fill="#3B5BDB" fill-opacity="0.3"/>
</svg>
