<svg width="40" height="41" viewBox="0 0 40 41" fill="none" xmlns="http://www.w3.org/2000/svg">
<g clip-path="url(#clip0_1976_46)">
<path d="M0.853324 19.7612C0.852386 23.1221 1.73741 26.4037 3.42026 29.2962L0.692383 39.1789L10.8851 36.527C13.7043 38.0498 16.863 38.8478 20.0728 38.848H20.0812C30.6776 38.848 39.3032 30.2923 39.3078 19.7763C39.3098 14.6805 37.3116 9.88877 33.6812 6.28373C30.0515 2.679 25.224 0.692755 20.0805 0.69043C9.48289 0.69043 0.857855 9.24566 0.85348 19.7612" fill="url(#paint0_linear_1976_46)"/>
<path d="M0.167191 19.7549C0.166097 23.2366 1.08284 26.6356 2.82569 29.6317L0 39.8686L10.5582 37.1217C13.4673 38.6956 16.7427 39.5254 20.0756 39.5266H20.0842C31.0607 39.5266 39.9962 30.6632 40.0009 19.7707C40.0028 14.4918 37.9327 9.52781 34.1726 5.79362C30.4121 2.05989 25.412 0.00217059 20.0842 0C9.10582 0 0.171566 8.86221 0.167191 19.7549ZM6.45499 29.1157L6.06076 28.4947C4.40353 25.8801 3.52883 22.8586 3.53008 19.7561C3.53352 10.7024 10.9593 3.33651 20.0904 3.33651C24.5124 3.33837 28.6681 5.04879 31.7938 8.15212C34.9194 11.2558 36.6392 15.3814 36.6382 19.7694C36.6341 28.8231 29.2081 36.1899 20.0842 36.1899H20.0776C17.1068 36.1884 14.1931 35.3967 11.6521 33.9007L11.0474 33.5449L4.78198 35.1749L6.45499 29.1157Z" fill="url(#paint1_linear_1976_46)"/>
<path d="M15.1081 11.4955C14.7353 10.6734 14.3429 10.6568 13.9884 10.6423C13.6981 10.6299 13.3662 10.6309 13.0346 10.6309C12.7028 10.6309 12.1635 10.7548 11.7077 11.2486C11.2515 11.7428 9.96582 12.9373 9.96582 15.3666C9.96582 17.796 11.7491 20.144 11.9977 20.4737C12.2467 20.8029 15.4405 25.9478 20.4987 27.9271C24.7026 29.5719 25.558 29.2448 26.4704 29.1623C27.3829 29.0801 29.4148 27.9682 29.8294 26.8151C30.2442 25.6622 30.2442 24.674 30.1199 24.4675C29.9955 24.2617 29.6636 24.1381 29.1659 23.8913C28.6683 23.6445 26.2215 22.4497 25.7654 22.2849C25.3091 22.1203 24.9774 22.0381 24.6455 22.5325C24.3136 23.0262 23.3606 24.1381 23.0702 24.4675C22.78 24.7975 22.4895 24.8386 21.992 24.5916C21.494 24.3439 19.8914 23.8231 17.9899 22.1411C16.5105 20.8322 15.5117 19.2159 15.2214 18.7214C14.9311 18.2278 15.1903 17.9602 15.4398 17.7141C15.6634 17.4929 15.9377 17.1375 16.1867 16.8493C16.4349 16.5609 16.5177 16.3552 16.6836 16.0259C16.8497 15.6963 16.7666 15.4079 16.6424 15.1609C16.5177 14.9139 15.5506 12.4718 15.1081 11.4955Z" fill="white"/>
</g>
<defs>
<linearGradient id="paint0_linear_1976_46" x1="1931.46" y1="3849.54" x2="1931.46" y2="0.69043" gradientUnits="userSpaceOnUse">
<stop stop-color="#1FAF38"/>
<stop offset="1" stop-color="#60D669"/>
</linearGradient>
<linearGradient id="paint1_linear_1976_46" x1="2000.04" y1="3986.86" x2="2000.04" y2="0" gradientUnits="userSpaceOnUse">
<stop stop-color="#F9F9F9"/>
<stop offset="1" stop-color="white"/>
</linearGradient>
<clipPath id="clip0_1976_46">
<rect width="39.8458" height="40.1571" fill="white"/>
</clipPath>
</defs>
</svg>
